<svg width="83" height="24" viewBox="0 0 83 24" fill="none" xmlns="http://www.w3.org/2000/svg">
<path d="M22.36 19.2C21.64 19.2 20.9733 19.0667 20.36 18.8C19.76 18.5333 19.24 18.16 18.8 17.68C18.36 17.1867 18.0133 16.6067 17.76 15.94C17.52 15.26 17.4 14.52 17.4 13.72C17.4 12.9467 17.5133 12.2267 17.74 11.56C17.9667 10.8933 18.28 10.32 18.68 9.84C19.0933 9.34667 19.58 8.96667 20.14 8.7C20.7 8.42 21.32 8.28 22 8.28C22.68 8.28 23.3 8.43333 23.86 8.74C24.4333 9.04667 24.8733 9.48 25.18 10.04V4.4H28.98V14.8C28.98 15.16 29.0333 15.4133 29.14 15.56C29.2467 15.6933 29.4333 15.7733 29.7 15.8V19C29.0467 19.1333 28.5133 19.2 28.1 19.2C26.8067 19.2 26.06 18.7133 25.86 17.74L25.78 17.36C25.42 18 24.9333 18.4667 24.32 18.76C23.7067 19.0533 23.0533 19.2 22.36 19.2ZM23.4 16C24.0933 16 24.6933 15.64 25.2 14.92V13.04C25.0133 12.5733 24.74 12.2 24.38 11.92C24.02 11.6267 23.64 11.48 23.24 11.48C22.96 11.48 22.7 11.54 22.46 11.66C22.2333 11.78 22.0333 11.9467 21.86 12.16C21.7 12.3733 21.5667 12.62 21.46 12.9C21.3667 13.18 21.32 13.48 21.32 13.8C21.32 14.4667 21.5067 15 21.88 15.4C22.2667 15.8 22.7733 16 23.4 16ZM31.2608 19V8.48H35.0608V19H31.2608ZM31.2608 7.6V4.4H35.0608V7.6H31.2608ZM41.3234 19.2C40.4034 19.2 39.5034 19.0533 38.6234 18.76C37.7434 18.4533 36.9968 18.0133 36.3834 17.44L37.6834 15.16C38.3368 15.6 38.9634 15.94 39.5634 16.18C40.1768 16.42 40.7368 16.54 41.2434 16.54C41.7768 16.54 42.0434 16.3733 42.0434 16.04C42.0434 15.8533 41.9368 15.6933 41.7234 15.56C41.5234 15.4267 41.1234 15.2733 40.5234 15.1C39.7768 14.8867 39.1501 14.68 38.6434 14.48C38.1501 14.2667 37.7434 14.04 37.4234 13.8C37.1168 13.56 36.8968 13.2933 36.7634 13C36.6301 12.7067 36.5634 12.36 36.5634 11.96C36.5634 11.4267 36.6701 10.9333 36.8834 10.48C37.0968 10.0267 37.3901 9.63333 37.7634 9.3C38.1501 8.96667 38.6034 8.71333 39.1234 8.54C39.6568 8.35333 40.2368 8.26 40.8634 8.26C41.6368 8.26 42.3701 8.36 43.0634 8.56C43.7701 8.76 44.4768 9.16667 45.1834 9.78L43.7434 12.06C43.0901 11.6333 42.5434 11.3333 42.1034 11.16C41.6634 10.9733 41.2501 10.88 40.8634 10.88C40.6368 10.88 40.4501 10.9267 40.3034 11.02C40.1568 11.1 40.0834 11.2333 40.0834 11.42C40.0834 11.62 40.1901 11.7867 40.4034 11.92C40.6168 12.04 41.0368 12.18 41.6634 12.34C42.4234 12.54 43.0634 12.7533 43.5834 12.98C44.1034 13.1933 44.5168 13.4333 44.8234 13.7C45.1434 13.9533 45.3701 14.2467 45.5034 14.58C45.6368 14.9 45.7034 15.2733 45.7034 15.7C45.7034 16.2467 45.6034 16.7333 45.4034 17.16C45.2034 17.5867 44.9101 17.9533 44.5234 18.26C44.1501 18.5667 43.6901 18.8 43.1434 18.96C42.6101 19.12 42.0034 19.2 41.3234 19.2ZM57.583 19H53.783V13.08C53.783 12.56 53.663 12.1867 53.423 11.96C53.1963 11.72 52.9096 11.6 52.563 11.6C52.443 11.6 52.2963 11.64 52.123 11.72C51.963 11.7867 51.7963 11.8867 51.623 12.02C51.463 12.14 51.3096 12.2933 51.163 12.48C51.0163 12.6667 50.8963 12.8733 50.803 13.1V19H47.003V4.4H50.803V10.04C51.1763 9.46667 51.663 9.03333 52.263 8.74C52.863 8.43333 53.5363 8.28 54.283 8.28C55.0163 8.28 55.603 8.40667 56.043 8.66C56.483 8.91333 56.8163 9.23333 57.043 9.62C57.2696 9.99333 57.4163 10.4 57.483 10.84C57.5496 11.28 57.583 11.6933 57.583 12.08V19Z" fill="black"/>
<path d="M66.3648 19L63.9848 15.16L63.2248 16V19H59.4248V4.4H63.2248V12.38L66.0248 8.48H70.0248L66.4048 13.08L70.3848 19H66.3648ZM74.6367 19C73.9567 19 73.3301 18.8667 72.7567 18.6C72.1967 18.32 71.7167 17.9467 71.3167 17.48C70.9167 17 70.6034 16.44 70.3767 15.8C70.1634 15.16 70.0567 14.4667 70.0567 13.72C70.0567 12.9333 70.1767 12.2067 70.4167 11.54C70.6567 10.8733 70.9901 10.3 71.4167 9.82C71.8567 9.34 72.3767 8.96667 72.9767 8.7C73.5767 8.42 74.2367 8.28 74.9567 8.28C75.7167 8.28 76.3834 8.43333 76.9567 8.74C77.5301 9.03333 77.9834 9.46667 78.3167 10.04V8.48H81.6167V18.04C81.6167 18.8667 81.4634 19.6133 81.1567 20.28C80.8501 20.9467 80.4167 21.5133 79.8567 21.98C79.2967 22.4467 78.6234 22.8067 77.8367 23.06C77.0501 23.3267 76.1767 23.46 75.2167 23.46C74.0967 23.46 73.1234 23.2867 72.2967 22.94C71.4701 22.5933 70.7367 22.0933 70.0967 21.44L72.0967 19.36C72.4834 19.72 72.9434 20.02 73.4767 20.26C74.0234 20.5133 74.6034 20.64 75.2167 20.64C75.5634 20.64 75.8901 20.5933 76.1967 20.5C76.5167 20.4067 76.7967 20.2533 77.0367 20.04C77.2767 19.84 77.4634 19.5733 77.5967 19.24C77.7434 18.9067 77.8167 18.5067 77.8167 18.04V17.36C77.5101 17.92 77.0701 18.3333 76.4967 18.6C75.9367 18.8667 75.3167 19 74.6367 19ZM75.9967 16C76.3834 16 76.7167 15.9133 76.9967 15.74C77.2901 15.5533 77.5634 15.28 77.8167 14.92V13.04C77.6301 12.56 77.3501 12.18 76.9767 11.9C76.6167 11.62 76.2367 11.48 75.8367 11.48C75.5701 11.48 75.3167 11.5467 75.0767 11.68C74.8501 11.8 74.6501 11.9667 74.4767 12.18C74.3034 12.38 74.1701 12.6267 74.0767 12.92C73.9834 13.2 73.9367 13.5 73.9367 13.82C73.9367 14.4733 74.1301 15 74.5167 15.4C74.9034 15.8 75.3967 16 75.9967 16Z" fill="#FFC222"/>
<g clip-path="url(#clip0)">
<path d="M10.3448 18.9957C10.8183 19.0403 11.2589 18.749 11.3799 18.2891L11.8138 16.6406C6.31711 16.4797 2.59875 12.8141 2.36613 7.35344L0.697968 7.81575C0.237422 7.94348 -0.048809 8.39231 0.00597674 8.86751C0.617695 14.1638 5.01545 18.4927 10.3448 18.9957ZM12.0578 15.7145L14.9831 4.59661C15.0044 4.51584 15.004 4.43089 14.9819 4.35033C14.9599 4.26978 14.917 4.19646 14.8576 4.13777C14.7981 4.07909 14.7243 4.03711 14.6435 4.01608C14.5626 3.99505 14.4777 3.99571 14.3972 4.01799L3.29367 7.09709C3.41877 12.2208 6.89953 15.6559 12.0578 15.7133L12.0578 15.7145ZM11.2492 6.81262C11.4347 6.81262 11.6159 6.8676 11.7701 6.97062C11.9243 7.07363 12.0444 7.22005 12.1154 7.39136C12.1863 7.56266 12.2049 7.75116 12.1687 7.93302C12.1326 8.11488 12.0433 8.28192 11.9122 8.41303C11.781 8.54415 11.614 8.63343 11.4321 8.66961C11.2503 8.70578 11.0618 8.68722 10.8905 8.61626C10.7192 8.5453 10.5728 8.42514 10.4697 8.27097C10.3667 8.1168 10.3117 7.93554 10.3117 7.75012C10.3117 7.50148 10.4105 7.26302 10.5863 7.08721C10.7621 6.91139 11.0006 6.81262 11.2492 6.81262ZM9.84299 11.2657C10.0284 11.2657 10.2097 11.3207 10.3638 11.4237C10.518 11.5268 10.6382 11.6732 10.7091 11.8445C10.7801 12.0158 10.7986 12.2043 10.7625 12.3861C10.7263 12.568 10.637 12.735 10.5059 12.8662C10.3748 12.9973 10.2077 13.0866 10.0259 13.1227C9.84403 13.1589 9.65553 13.1403 9.48422 13.0694C9.31292 12.9984 9.1665 12.8783 9.06349 12.7241C8.96047 12.5699 8.90549 12.3887 8.90549 12.2032C8.90549 11.9546 9.00426 11.7161 9.18008 11.5403C9.35589 11.3645 9.59435 11.2657 9.84299 11.2657ZM6.79611 8.21887C6.98153 8.21887 7.16279 8.27385 7.31696 8.37687C7.47113 8.47988 7.59129 8.6263 7.66225 8.79761C7.73321 8.96891 7.75177 9.15741 7.7156 9.33927C7.67943 9.52113 7.59014 9.68817 7.45903 9.81928C7.32791 9.9504 7.16087 10.0397 6.97901 10.0759C6.79715 10.112 6.60865 10.0935 6.43735 10.0225C6.26604 9.95155 6.11962 9.83139 6.01661 9.67722C5.9136 9.52305 5.85861 9.34179 5.85861 9.15637C5.85861 8.90773 5.95739 8.66928 6.1332 8.49346C6.30902 8.31764 6.54747 8.21887 6.79611 8.21887Z" fill="black"/>
</g>
<defs>
<clipPath id="clip0">
<rect width="15" height="15" fill="white" transform="translate(15 19) rotate(180)"/>
</clipPath>
</defs>
</svg>
